{
  "accessors": [
    {
      "bufferView": 0,
      "componentType": 5125,
      "count": 2328,
      "type": "SCALAR"
    },
    {
      "bufferView": 1,
      "componentType": 5126,
      "count": 656,
      "max": [
        0.0004820312384705705,
        -0.005780651708764253,
        0.000999999974737873
      ],
      "min": [
        -0.0004814941291111374,
        -0.008670934840220454,
        -0.0009999999747378773
      ],
      "type": "VEC3"
    },
    {
      "bufferView": 2,
      "componentType": 5126,
      "count": 656,
      "max": [
        0.9999231403692954,
        0.9999999721873127,
        1.0
      ],
      "min": [
        -0.9999200962148378,
        -0.9999999999900868,
        -1.0
      ],
      "type": "VEC3"
    },
    {
      "bufferView": 3,
      "componentType": 5126,
      "count": 656,
      "max": [
        0.9648451691241383,
        1.0
      ],
      "min": [
        0.0,
        0.0
      ],
      "type": "VEC2"
    },
    {
      "bufferView": 4,
      "componentType": 5125,
      "count": 2328,
      "type": "SCALAR"
    },
    {
      "bufferView": 5,
      "componentType": 5126,
      "count": 656,
      "max": [
        0.0004820312384704595,
        0.008670739527725527,
        0.0009999999747378734
      ],
      "min": [
        -0.0004814941291111374,
        0.005780456396269312,
        -0.0009999999747378773
      ],
      "type": "VEC3"
    },
    {
      "bufferView": 6,
      "componentType": 5126,
      "count": 656,
      "max": [
        0.9999231662442004,
        0.9999999999900892,
        1.0
      ],
      "min": [
        -0.9999230237846886,
        -0.9999999999999611,
        -1.0
      ],
      "type": "VEC3"
    },
    {
      "bufferView": 7,
      "componentType": 5126,
      "count": 656,
      "max": [
        0.9648237589093496,
        1.0
      ],
      "min": [
        0.0,
        0.0
      ],
      "type": "VEC2"
    },
    {
      "bufferView": 8,
      "componentType": 5125,
      "count": 2616,
      "type": "SCALAR"
    },
    {
      "bufferView": 9,
      "componentType": 5126,
      "count": 736,
      "max": [
        0.003622055575444705,
        0.007853299099489494,
        0.000999999974737873
      ],
      "min": [
        0.002151919606531938,
        0.005631907011174206,
        -0.0009999999747378773
      ],
      "type": "VEC3"
    },
    {
      "bufferView": 10,
      "componentType": 5126,
      "count": 736,
      "max": [
        0.9999968064612608,
        0.9999968223742751,
        1.0
      ],
      "min": [
        -0.9999998714646682,
        -0.9999999574633178,
        -1.0
      ],
      "type": "VEC3"
    },
    {
      "bufferView": 11,
      "componentType": 5126,
      "count": 736,
      "max": [
        0.9829117362483948,
        1.0
      ],
      "min": [
        0.0,
        0.0
      ],
      "type": "VEC2"
    },
    {
      "bufferView": 12,
      "componentType": 5125,
      "count": 2616,
      "type": "SCALAR"
    },
    {
      "bufferView": 13,
      "componentType": 5126,
      "count": 736,
      "max": [
        -0.0021077046788595677,
        0.007833791713415333,
        0.0009999999747378687
      ],
      "min": [
        -0.0036648589281730315,
        0.005650625506218504,
        -0.0009999999747378773
      ],
      "type": "VEC3"
    },
    {
      "bufferView": 14,
      "componentType": 5126,
      "count": 736,
      "max": [
        0.9999882822237295,
        0.9999864268267286,
        1.0
      ],
      "min": [
        -0.9999863853281936,
        -0.99998819327144,
        -1.0
      ],
      "type": "VEC3"
    },
    {
      "bufferView": 15,
      "componentType": 5126,
      "count": 736,
      "max": [
        1.0,
        0.9137484306806195
      ],
      "min": [
        0.0,
        0.0
      ],
      "type": "VEC2"
    },
    {
      "bufferView": 16,
      "componentType": 5125,
      "count": 3048,
      "type": "SCALAR"
    },
    {
      "bufferView": 17,
      "componentType": 5126,
      "count": 856,
      "max": [
        -0.002028194749675749,
        -0.005704953977506741,
        0.000999999974737873
      ],
      "min": [
        -0.0037589718417966322,
        -0.00778806533100132,
        -0.0009999999747378773
      ],
      "type": "VEC3"
    },
    {
      "bufferView": 18,
      "componentType": 5126,
      "count": 856,
      "max": [
        0.9999985624262151,
        0.9999985623235944,
        1.0
      ],
      "min": [
        -0.9999988040928806,
        -0.9999988449454728,
        -1.0
      ],
      "type": "VEC3"
    },
    {
      "bufferView": 19,
      "componentType": 5126,
      "count": 856,
      "max": [
        1.0,
        0.9013731004281156
      ],
      "min": [
        0.0,
        0.0
      ],
      "type": "VEC2"
    },
    {
      "bufferView": 20,
      "componentType": 5125,
      "count": 3192,
      "type": "SCALAR"
    },
    {
      "bufferView": 21,
      "componentType": 5126,
      "count": 896,
      "max": [
        0.003697849962389199,
        -0.0056670382159693805,
        0.000999999974737873
      ],
      "min": [
        0.0020906366007936716,
        -0.007824929110146553,
        -0.0009999999747378773
      ],
      "type": "VEC3"
    },
    {
      "bufferView": 22,
      "componentType": 5126,
      "count": 896,
      "max": [
        0.999999674347352,
        0.999999696902153,
        1.0
      ],
      "min": [
        -0.9999996961979548,
        -0.9999997025837576,
        -1.0
      ],
      "type": "VEC3"
    },
    {
      "bufferView": 23,
      "componentType": 5126,
      "count": 896,
      "max": [
        1.0,
        0.8960984065534885
      ],
      "min": [
        0.0,
        0.0
      ],
      "type": "VEC2"
    },
    {
      "bufferView": 24,
      "componentType": 5125,
      "count": 312,
      "type": "SCALAR"
    },
    {
      "bufferView": 25,
      "componentType": 5126,
      "count": 126,
      "max": [
        0.0029103514901537286,
        0.0028147094001681333,
        0.0009999999747378773
      ],
      "min": [
        -0.0027163573544275454,
        -0.0031229125173825034,
        -0.0009999999747378773
      ],
      "type": "VEC3"
    },
    {
      "bufferView": 26,
      "componentType": 5126,
      "count": 126,
      "max": [
        0.9972608100995772,
        1.0,
        1.0
      ],
      "min": [
        -0.9965959437542667,
        -1.0,
        -1.0
      ],
      "type": "VEC3"
    },
    {
      "bufferView": 27,
      "componentType": 5126,
      "count": 126,
      "max": [
        1.0,
        0.9520508492316905
      ],
      "min": [
        0.0,
        0.0
      ],
      "type": "VEC2"
    },
    {
      "bufferView": 28,
      "componentType": 5125,
      "count": 17994,
      "type": "SCALAR"
    },
    {
      "bufferView": 29,
      "componentType": 5126,
      "count": 5031,
      "max": [
        0.010597655985245091,
        0.01059766819424654,
        0.0009999999747378687
      ],
      "min": [
        -0.01059765598524498,
        -0.010597668194246554,
        -0.0009999999747378773
      ],
      "type": "VEC3"
    },
    {
      "bufferView": 30,
      "componentType": 5126,
      "count": 5031,
      "max": [
        1.0,
        0.9999999999999738,
        1.0
      ],
      "min": [
        -0.9999999999999996,
        -0.999999999999982,
        -1.0
      ],
      "type": "VEC3"
    },
    {
      "bufferView": 31,
      "componentType": 5126,
      "count": 5031,
      "max": [
        0.9961816007653476,
        1.0
      ],
      "min": [
        0.0,
        0.0
      ],
      "type": "VEC2"
    }
  ],
  "asset": {
    "generator": "Adobe Illustrator",
    "version": "2.0"
  },
  "bufferViews": [
    {
      "buffer": 0,
      "byteLength": 9312,
      "target": 34963
    },
    {
      "buffer": 0,
      "byteLength": 7872,
      "byteOffset": 9312,
      "target": 34962
    },
    {
      "buffer": 0,
      "byteLength": 7872,
      "byteOffset": 17184,
      "target": 34962
    },
    {
      "buffer": 0,
      "byteLength": 5248,
      "byteOffset": 25056,
      "target": 34962
    },
    {
      "buffer": 0,
      "byteLength": 9312,
      "byteOffset": 30304,
      "target": 34963
    },
    {
      "buffer": 0,
      "byteLength": 7872,
      "byteOffset": 39616,
      "target": 34962
    },
    {
      "buffer": 0,
      "byteLength": 7872,
      "byteOffset": 47488,
      "target": 34962
    },
    {
      "buffer": 0,
      "byteLength": 5248,
      "byteOffset": 55360,
      "target": 34962
    },
    {
      "buffer": 0,
      "byteLength": 10464,
      "byteOffset": 60608,
      "target": 34963
    },
    {
      "buffer": 0,
      "byteLength": 8832,
      "byteOffset": 71072,
      "target": 34962
    },
    {
      "buffer": 0,
      "byteLength": 8832,
      "byteOffset": 79904,
      "target": 34962
    },
    {
      "buffer": 0,
      "byteLength": 5888,
      "byteOffset": 88736,
      "target": 34962
    },
    {
      "buffer": 0,
      "byteLength": 10464,
      "byteOffset": 94624,
      "target": 34963
    },
    {
      "buffer": 0,
      "byteLength": 8832,
      "byteOffset": 105088,
      "target": 34962
    },
    {
      "buffer": 0,
      "byteLength": 8832,
      "byteOffset": 113920,
      "target": 34962
    },
    {
      "buffer": 0,
      "byteLength": 5888,
      "byteOffset": 122752,
      "target": 34962
    },
    {
      "buffer": 0,
      "byteLength": 12192,
      "byteOffset": 128640,
      "target": 34963
    },
    {
      "buffer": 0,
      "byteLength": 10272,
      "byteOffset": 140832,
      "target": 34962
    },
    {
      "buffer": 0,
      "byteLength": 10272,
      "byteOffset": 151104,
      "target": 34962
    },
    {
      "buffer": 0,
      "byteLength": 6848,
      "byteOffset": 161376,
      "target": 34962
    },
    {
      "buffer": 0,
      "byteLength": 12768,
      "byteOffset": 168224,
      "target": 34963
    },
    {
      "buffer": 0,
      "byteLength": 10752,
      "byteOffset": 180992,
      "target": 34962
    },
    {
      "buffer": 0,
      "byteLength": 10752,
      "byteOffset": 191744,
      "target": 34962
    },
    {
      "buffer": 0,
      "byteLength": 7168,
      "byteOffset": 202496,
      "target": 34962
    },
    {
      "buffer": 0,
      "byteLength": 1248,
      "byteOffset": 209664,
      "target": 34963
    },
    {
      "buffer": 0,
      "byteLength": 1512,
      "byteOffset": 210912,
      "target": 34962
    },
    {
      "buffer": 0,
      "byteLength": 1512,
      "byteOffset": 212424,
      "target": 34962
    },
    {
      "buffer": 0,
      "byteLength": 1008,
      "byteOffset": 213936,
      "target": 34962
    },
    {
      "buffer": 0,
      "byteLength": 71976,
      "byteOffset": 214944,
      "target": 34963
    },
    {
      "buffer": 0,
      "byteLength": 60372,
      "byteOffset": 286920,
      "target": 34962
    },
    {
      "buffer": 0,
      "byteLength": 60372,
      "byteOffset": 347292,
      "target": 34962
    },
    {
      "buffer": 0,
      "byteLength": 40248,
      "byteOffset": 407664,
      "target": 34962
    }
  ],
  "buffers": [
    {
      "byteLength": 447912,
      "uri": "data:application/octet-stream;base64,"
    }
  ],
  "materials": [
    {
      "doubleSided": true,
      "pbrMetallicRoughness": {
        "baseColorFactor": [
          0.1953125,
          0.1132812574505806,
          0.359375,
          1.0
        ],
        "metallicFactor": 0.0,
        "roughnessFactor": 0.4000000059604645
      }
    },
    {
      "doubleSided": true,
      "pbrMetallicRoughness": {
        "baseColorFactor": [
          0.1953125,
          0.1132812574505806,
          0.359375,
          1.0
        ],
        "metallicFactor": 0.0,
        "roughnessFactor": 0.4000000059604645
      }
    },
    {
      "doubleSided": true,
      "pbrMetallicRoughness": {
        "baseColorFactor": [
          0.1953125,
          0.1132812574505806,
          0.359375,
          1.0
        ],
        "metallicFactor": 0.0,
        "roughnessFactor": 0.4000000059604645
      }
    },
    {
      "doubleSided": true,
      "pbrMetallicRoughness": {
        "baseColorFactor": [
          0.1953125,
          0.1132812574505806,
          0.359375,
          1.0
        ],
        "metallicFactor": 0.0,
        "roughnessFactor": 0.4000000059604645
      }
    },
    {
      "doubleSided": true,
      "pbrMetallicRoughness": {
        "baseColorFactor": [
          0.1953125,
          0.1132812574505806,
          0.359375,
          1.0
        ],
        "metallicFactor": 0.0,
        "roughnessFactor": 0.4000000059604645
      }
    },
    {
      "doubleSided": true,
      "pbrMetallicRoughness": {
        "baseColorFactor": [
          0.1953125,
          0.1132812574505806,
          0.359375,
          1.0
        ],
        "metallicFactor": 0.0,
        "roughnessFactor": 0.4000000059604645
      }
    },
    {
      "doubleSided": true,
      "pbrMetallicRoughness": {
        "baseColorFactor": [
          0.1953125,
          0.1132812574505806,
          0.359375,
          1.0
        ],
        "metallicFactor": 0.0,
        "roughnessFactor": 0.4000000059604645
      }
    },
    {
      "doubleSided": true,
      "pbrMetallicRoughness": {
        "baseColorFactor": [
          0.1953125,
          0.1132812574505806,
          0.359375,
          1.0
        ],
        "metallicFactor": 0.0,
        "roughnessFactor": 0.4000000059604645
      }
    }
  ],
  "meshes": [
    {
      "primitives": [
        {
          "attributes": {
            "NORMAL": 2,
            "POSITION": 1,
            "TEXCOORD_0": 3
          },
          "indices": 0,
          "material": 0,
          "mode": 4
        }
      ]
    },
    {
      "primitives": [
        {
          "attributes": {
            "NORMAL": 6,
            "POSITION": 5,
            "TEXCOORD_0": 7
          },
          "indices": 4,
          "material": 1,
          "mode": 4
        }
      ]
    },
    {
      "primitives": [
        {
          "attributes": {
            "NORMAL": 10,
            "POSITION": 9,
            "TEXCOORD_0": 11
          },
          "indices": 8,
          "material": 2,
          "mode": 4
        }
      ]
    },
    {
      "primitives": [
        {
          "attributes": {
            "NORMAL": 14,
            "POSITION": 13,
            "TEXCOORD_0": 15
          },
          "indices": 12,
          "material": 3,
          "mode": 4
        }
      ]
    },
    {
      "primitives": [
        {
          "attributes": {
            "NORMAL": 18,
            "POSITION": 17,
            "TEXCOORD_0": 19
          },
          "indices": 16,
          "material": 4,
          "mode": 4
        }
      ]
    },
    {
      "primitives": [
        {
          "attributes": {
            "NORMAL": 22,
            "POSITION": 21,
            "TEXCOORD_0": 23
          },
          "indices": 20,
          "material": 5,
          "mode": 4
        }
      ]
    },
    {
      "primitives": [
        {
          "attributes": {
            "NORMAL": 26,
            "POSITION": 25,
            "TEXCOORD_0": 27
          },
          "indices": 24,
          "material": 6,
          "mode": 4
        }
      ]
    },
    {
      "primitives": [
        {
          "attributes": {
            "NORMAL": 30,
            "POSITION": 29,
            "TEXCOORD_0": 31
          },
          "indices": 28,
          "material": 7,
          "mode": 4
        }
      ]
    }
  ],
  "nodes": [
    {
      "mesh": 0
    },
    {
      "mesh": 1
    },
    {
      "mesh": 2
    },
    {
      "mesh": 3
    },
    {
      "mesh": 4
    },
    {
      "mesh": 5
    },
    {
      "mesh": 6
    },
    {
      "mesh": 7
    }
  ],
  "scenes": [
    {
      "nodes": [
        0,
        1,
        2,
        3,
        4,
        5,
        6,
        7
      ]
    }
  ]
}
