{
  "accessors": [
    {
      "bufferView": 0,
      "componentType": 5125,
      "count": 2328,
      "type": "SCALAR"
    },
    {
      "bufferView": 1,
      "componentType": 5126,
      "count": 656,
      "max": [
        0.0004820312384714587,
        -0.005780651708764184,
        0.0013999999646330233
      ],
      "min": [
        -0.0004814941291101382,
        -0.008670934840220385,
        -0.0013999999646330272
      ],
      "type": "VEC3"
    },
    {
      "bufferView": 2,
      "componentType": 5126,
      "count": 656,
      "max": [
        0.9999231403692959,
        0.9999999721873127,
        1.0
      ],
      "min": [
        -0.9999200962148382,
        -0.9999999999900868,
        -1.0
      ],
      "type": "VEC3"
    },
    {
      "bufferView": 3,
      "componentType": 5126,
      "count": 656,
      "max": [
        1.0,
        0.9083480819414442
      ],
      "min": [
        0.0,
        0.0
      ],
      "type": "VEC2"
    },
    {
      "bufferView": 4,
      "componentType": 5125,
      "count": 2328,
      "type": "SCALAR"
    },
    {
      "bufferView": 5,
      "componentType": 5126,
      "count": 656,
      "max": [
        0.0004820312384714587,
        0.008670739527725471,
        0.0013999999646330233
      ],
      "min": [
        -0.0004814941291101382,
        0.005780456396269257,
        -0.0013999999646330272
      ],
      "type": "VEC3"
    },
    {
      "bufferView": 6,
      "componentType": 5126,
      "count": 656,
      "max": [
        0.9999231662441999,
        0.9999999999900892,
        1.0
      ],
      "min": [
        -0.9999230237846891,
        -0.9999999999999611,
        -1.0
      ],
      "type": "VEC3"
    },
    {
      "bufferView": 7,
      "componentType": 5126,
      "count": 656,
      "max": [
        1.0,
        0.9083465944435245
      ],
      "min": [
        0.0,
        0.0
      ],
      "type": "VEC2"
    },
    {
      "bufferView": 8,
      "componentType": 5125,
      "count": 2616,
      "type": "SCALAR"
    },
    {
      "bufferView": 9,
      "componentType": 5126,
      "count": 736,
      "max": [
        0.003622055575444816,
        0.007853299099489564,
        0.0013999999646330233
      ],
      "min": [
        0.002151919606532049,
        0.005631907011174275,
        -0.0013999999646330272
      ],
      "type": "VEC3"
    },
    {
      "bufferView": 10,
      "componentType": 5126,
      "count": 736,
      "max": [
        0.9999968064612608,
        0.9999968223742751,
        1.0
      ],
      "min": [
        -0.9999998714646682,
        -0.9999999574633178,
        -1.0
      ],
      "type": "VEC3"
    },
    {
      "bufferView": 11,
      "componentType": 5126,
      "count": 736,
      "max": [
        0.8157975884764048,
        1.0
      ],
      "min": [
        0.0,
        0.0
      ],
      "type": "VEC2"
    },
    {
      "bufferView": 12,
      "componentType": 5125,
      "count": 2616,
      "type": "SCALAR"
    },
    {
      "bufferView": 13,
      "componentType": 5126,
      "count": 736,
      "max": [
        -0.0021077046788595677,
        0.007833791713415278,
        0.0013999999646330215
      ],
      "min": [
        -0.0036648589281730315,
        0.0056506255062184485,
        -0.0013999999646330272
      ],
      "type": "VEC3"
    },
    {
      "bufferView": 14,
      "componentType": 5126,
      "count": 736,
      "max": [
        0.9999882822237295,
        0.9999864268267286,
        1.0
      ],
      "min": [
        -0.9999863853281936,
        -0.99998819327144,
        -1.0
      ],
      "type": "VEC3"
    },
    {
      "bufferView": 15,
      "componentType": 5126,
      "count": 736,
      "max": [
        1.0,
        0.9247496754872219
      ],
      "min": [
        0.0,
        0.0
      ],
      "type": "VEC2"
    },
    {
      "bufferView": 16,
      "componentType": 5125,
      "count": 3048,
      "type": "SCALAR"
    },
    {
      "bufferView": 17,
      "componentType": 5126,
      "count": 856,
      "max": [
        -0.002028194749675749,
        -0.005704953977506699,
        0.0013999999646330237
      ],
      "min": [
        -0.0037589718417966322,
        -0.007788065331001223,
        -0.0013999999646330272
      ],
      "type": "VEC3"
    },
    {
      "bufferView": 18,
      "componentType": 5126,
      "count": 856,
      "max": [
        0.999998562426215,
        0.9999985623235943,
        1.0
      ],
      "min": [
        -0.9999988040928807,
        -0.9999988449454729,
        -1.0
      ],
      "type": "VEC3"
    },
    {
      "bufferView": 19,
      "componentType": 5126,
      "count": 856,
      "max": [
        0.8804550101654818,
        1.0
      ],
      "min": [
        0.0,
        0.0
      ],
      "type": "VEC2"
    },
    {
      "bufferView": 20,
      "componentType": 5125,
      "count": 3192,
      "type": "SCALAR"
    },
    {
      "bufferView": 21,
      "componentType": 5126,
      "count": 896,
      "max": [
        0.0036978499623901984,
        -0.005667038215969436,
        0.0013999999646330237
      ],
      "min": [
        0.002090636600794671,
        -0.007824929110146622,
        -0.0013999999646330272
      ],
      "type": "VEC3"
    },
    {
      "bufferView": 22,
      "componentType": 5126,
      "count": 896,
      "max": [
        0.999999674347352,
        0.999999696902153,
        1.0
      ],
      "min": [
        -0.9999996961979548,
        -0.9999997025837576,
        -1.0
      ],
      "type": "VEC3"
    },
    {
      "bufferView": 23,
      "componentType": 5126,
      "count": 896,
      "max": [
        1.0,
        0.9171765712297424
      ],
      "min": [
        0.0,
        0.0
      ],
      "type": "VEC2"
    },
    {
      "bufferView": 24,
      "componentType": 5125,
      "count": 312,
      "type": "SCALAR"
    },
    {
      "bufferView": 25,
      "componentType": 5126,
      "count": 126,
      "max": [
        0.0029103514901531735,
        0.002814709400168272,
        0.0013999999646330272
      ],
      "min": [
        -0.0027163573544281006,
        -0.0031229125173823646,
        -0.0013999999646330272
      ],
      "type": "VEC3"
    },
    {
      "bufferView": 26,
      "componentType": 5126,
      "count": 126,
      "max": [
        0.9972608100995773,
        1.0,
        1.0
      ],
      "min": [
        -0.9965959437542666,
        -1.0,
        -1.0
      ],
      "type": "VEC3"
    },
    {
      "bufferView": 27,
      "componentType": 5126,
      "count": 126,
      "max": [
        0.9927555754298423,
        1.0
      ],
      "min": [
        0.0,
        0.0
      ],
      "type": "VEC2"
    },
    {
      "bufferView": 28,
      "componentType": 5125,
      "count": 17994,
      "type": "SCALAR"
    },
    {
      "bufferView": 29,
      "componentType": 5126,
      "count": 5031,
      "max": [
        0.010597655985245091,
        0.010597668194246554,
        0.0013999999646330215
      ],
      "min": [
        -0.01059765598524498,
        -0.01059766819424654,
        -0.0013999999646330272
      ],
      "type": "VEC3"
    },
    {
      "bufferView": 30,
      "componentType": 5126,
      "count": 5031,
      "max": [
        1.0,
        0.9999999999999738,
        1.0
      ],
      "min": [
        -0.9999999999999996,
        -0.999999999999982,
        -1.0
      ],
      "type": "VEC3"
    },
    {
      "bufferView": 31,
      "componentType": 5126,
      "count": 5031,
      "max": [
        0.9961816007653476,
        1.0
      ],
      "min": [
        0.0,
        0.0
      ],
      "type": "VEC2"
    }
  ],
  "asset": {
    "generator": "Adobe Illustrator",
    "version": "2.0"
  },
  "bufferViews": [
    {
      "buffer": 0,
      "byteLength": 9312,
      "target": 34963
    },
    {
      "buffer": 0,
      "byteLength": 7872,
      "byteOffset": 9312,
      "target": 34962
    },
    {
      "buffer": 0,
      "byteLength": 7872,
      "byteOffset": 17184,
      "target": 34962
    },
    {
      "buffer": 0,
      "byteLength": 5248,
      "byteOffset": 25056,
      "target": 34962
    },
    {
      "buffer": 0,
      "byteLength": 9312,
      "byteOffset": 30304,
      "target": 34963
    },
    {
      "buffer": 0,
      "byteLength": 7872,
      "byteOffset": 39616,
      "target": 34962
    },
    {
      "buffer": 0,
      "byteLength": 7872,
      "byteOffset": 47488,
      "target": 34962
    },
    {
      "buffer": 0,
      "byteLength": 5248,
      "byteOffset": 55360,
      "target": 34962
    },
    {
      "buffer": 0,
      "byteLength": 10464,
      "byteOffset": 60608,
      "target": 34963
    },
    {
      "buffer": 0,
      "byteLength": 8832,
      "byteOffset": 71072,
      "target": 34962
    },
    {
      "buffer": 0,
      "byteLength": 8832,
      "byteOffset": 79904,
      "target": 34962
    },
    {
      "buffer": 0,
      "byteLength": 5888,
      "byteOffset": 88736,
      "target": 34962
    },
    {
      "buffer": 0,
      "byteLength": 10464,
      "byteOffset": 94624,
      "target": 34963
    },
    {
      "buffer": 0,
      "byteLength": 8832,
      "byteOffset": 105088,
      "target": 34962
    },
    {
      "buffer": 0,
      "byteLength": 8832,
      "byteOffset": 113920,
      "target": 34962
    },
    {
      "buffer": 0,
      "byteLength": 5888,
      "byteOffset": 122752,
      "target": 34962
    },
    {
      "buffer": 0,
      "byteLength": 12192,
      "byteOffset": 128640,
      "target": 34963
    },
    {
      "buffer": 0,
      "byteLength": 10272,
      "byteOffset": 140832,
      "target": 34962
    },
    {
      "buffer": 0,
      "byteLength": 10272,
      "byteOffset": 151104,
      "target": 34962
    },
    {
      "buffer": 0,
      "byteLength": 6848,
      "byteOffset": 161376,
      "target": 34962
    },
    {
      "buffer": 0,
      "byteLength": 12768,
      "byteOffset": 168224,
      "target": 34963
    },
    {
      "buffer": 0,
      "byteLength": 10752,
      "byteOffset": 180992,
      "target": 34962
    },
    {
      "buffer": 0,
      "byteLength": 10752,
      "byteOffset": 191744,
      "target": 34962
    },
    {
      "buffer": 0,
      "byteLength": 7168,
      "byteOffset": 202496,
      "target": 34962
    },
    {
      "buffer": 0,
      "byteLength": 1248,
      "byteOffset": 209664,
      "target": 34963
    },
    {
      "buffer": 0,
      "byteLength": 1512,
      "byteOffset": 210912,
      "target": 34962
    },
    {
      "buffer": 0,
      "byteLength": 1512,
      "byteOffset": 212424,
      "target": 34962
    },
    {
      "buffer": 0,
      "byteLength": 1008,
      "byteOffset": 213936,
      "target": 34962
    },
    {
      "buffer": 0,
      "byteLength": 71976,
      "byteOffset": 214944,
      "target": 34963
    },
    {
      "buffer": 0,
      "byteLength": 60372,
      "byteOffset": 286920,
      "target": 34962
    },
    {
      "buffer": 0,
      "byteLength": 60372,
      "byteOffset": 347292,
      "target": 34962
    },
    {
      "buffer": 0,
      "byteLength": 40248,
      "byteOffset": 407664,
      "target": 34962
    }
  ],
  "buffers": [
    {
      "byteLength": 447912,
      "uri": "data:application/octet-stream;base64,"
    }
  ],
  "materials": [
    {
      "doubleSided": true,
      "pbrMetallicRoughness": {
        "baseColorFactor": [
          0.88671875,
          0.3828125,
          0.1484375,
          1.0
        ],
        "metallicFactor": 0.0,
        "roughnessFactor": 0.017886193469166756
      }
    },
    {
      "doubleSided": true,
      "pbrMetallicRoughness": {
        "baseColorFactor": [
          0.88671875,
          0.3828125,
          0.1484375,
          1.0
        ],
        "metallicFactor": 0.0,
        "roughnessFactor": 0.017886193469166756
      }
    },
    {
      "doubleSided": true,
      "pbrMetallicRoughness": {
        "baseColorFactor": [
          0.88671875,
          0.3828125,
          0.1484375,
          1.0
        ],
        "metallicFactor": 0.0,
        "roughnessFactor": 0.017886193469166756
      }
    },
    {
      "doubleSided": true,
      "pbrMetallicRoughness": {
        "baseColorFactor": [
          0.88671875,
          0.3828125,
          0.1484375,
          1.0
        ],
        "metallicFactor": 0.0,
        "roughnessFactor": 0.017886193469166756
      }
    },
    {
      "doubleSided": true,
      "pbrMetallicRoughness": {
        "baseColorFactor": [
          0.88671875,
          0.3828125,
          0.1484375,
          1.0
        ],
        "metallicFactor": 0.0,
        "roughnessFactor": 0.017886193469166756
      }
    },
    {
      "doubleSided": true,
      "pbrMetallicRoughness": {
        "baseColorFactor": [
          0.88671875,
          0.3828125,
          0.1484375,
          1.0
        ],
        "metallicFactor": 0.0,
        "roughnessFactor": 0.017886193469166756
      }
    },
    {
      "doubleSided": true,
      "pbrMetallicRoughness": {
        "baseColorFactor": [
          0.88671875,
          0.3828125,
          0.1484375,
          1.0
        ],
        "metallicFactor": 0.0,
        "roughnessFactor": 0.017886193469166756
      }
    },
    {
      "doubleSided": true,
      "pbrMetallicRoughness": {
        "baseColorFactor": [
          0.88671875,
          0.3828125,
          0.1484375,
          1.0
        ],
        "metallicFactor": 0.0,
        "roughnessFactor": 0.017886193469166756
      }
    }
  ],
  "meshes": [
    {
      "primitives": [
        {
          "attributes": {
            "NORMAL": 2,
            "POSITION": 1,
            "TEXCOORD_0": 3
          },
          "indices": 0,
          "material": 0,
          "mode": 4
        }
      ]
    },
    {
      "primitives": [
        {
          "attributes": {
            "NORMAL": 6,
            "POSITION": 5,
            "TEXCOORD_0": 7
          },
          "indices": 4,
          "material": 1,
          "mode": 4
        }
      ]
    },
    {
      "primitives": [
        {
          "attributes": {
            "NORMAL": 10,
            "POSITION": 9,
            "TEXCOORD_0": 11
          },
          "indices": 8,
          "material": 2,
          "mode": 4
        }
      ]
    },
    {
      "primitives": [
        {
          "attributes": {
            "NORMAL": 14,
            "POSITION": 13,
            "TEXCOORD_0": 15
          },
          "indices": 12,
          "material": 3,
          "mode": 4
        }
      ]
    },
    {
      "primitives": [
        {
          "attributes": {
            "NORMAL": 18,
            "POSITION": 17,
            "TEXCOORD_0": 19
          },
          "indices": 16,
          "material": 4,
          "mode": 4
        }
      ]
    },
    {
      "primitives": [
        {
          "attributes": {
            "NORMAL": 22,
            "POSITION": 21,
            "TEXCOORD_0": 23
          },
          "indices": 20,
          "material": 5,
          "mode": 4
        }
      ]
    },
    {
      "primitives": [
        {
          "attributes": {
            "NORMAL": 26,
            "POSITION": 25,
            "TEXCOORD_0": 27
          },
          "indices": 24,
          "material": 6,
          "mode": 4
        }
      ]
    },
    {
      "primitives": [
        {
          "attributes": {
            "NORMAL": 30,
            "POSITION": 29,
            "TEXCOORD_0": 31
          },
          "indices": 28,
          "material": 7,
          "mode": 4
        }
      ]
    }
  ],
  "nodes": [
    {
      "mesh": 0
    },
    {
      "mesh": 1
    },
    {
      "mesh": 2
    },
    {
      "mesh": 3
    },
    {
      "mesh": 4
    },
    {
      "mesh": 5
    },
    {
      "mesh": 6
    },
    {
      "mesh": 7
    }
  ],
  "scenes": [
    {
      "nodes": [
        0,
        1,
        2,
        3,
        4,
        5,
        6,
        7
      ]
    }
  ]
}
