{
  "accessors": [
    {
      "bufferView": 0,
      "componentType": 5125,
      "count": 2328,
      "type": "SCALAR"
    },
    {
      "bufferView": 1,
      "componentType": 5126,
      "count": 656,
      "max": [
        0.0004820298733168027,
        -0.005780654135316962,
        0.003999999898951501
      ],
      "min": [
        -0.0004814927121320478,
        -0.008670928039834033,
        -0.003999999898951502
      ],
      "type": "VEC3"
    },
    {
      "bufferView": 2,
      "componentType": 5126,
      "count": 656,
      "max": [
        0.9999231422599938,
        0.9999999722232682,
        1.0
      ],
      "min": [
        -0.9999200981426135,
        -0.9999999999907542,
        -1.0
      ],
      "type": "VEC3"
    },
    {
      "bufferView": 3,
      "componentType": 5126,
      "count": 656,
      "max": [
        1.0,
        0.9828111804868224
      ],
      "min": [
        0.0,
        0.0
      ],
      "type": "VEC2"
    },
    {
      "bufferView": 4,
      "componentType": 5125,
      "count": 2328,
      "type": "SCALAR"
    },
    {
      "bufferView": 5,
      "componentType": 5126,
      "count": 656,
      "max": [
        0.00048203321341222516,
        0.00867074633376902,
        0.0039999998989514955
      ],
      "min": [
        -0.00048149623649762496,
        0.005780450957243319,
        -0.003999999898951502
      ],
      "type": "VEC3"
    },
    {
      "bufferView": 6,
      "componentType": 5126,
      "count": 656,
      "max": [
        0.9999231662456451,
        0.9999999999900897,
        1.0
      ],
      "min": [
        -0.9999230237832425,
        -0.9999999999999611,
        -1.0
      ],
      "type": "VEC3"
    },
    {
      "bufferView": 7,
      "componentType": 5126,
      "count": 656,
      "max": [
        1.0,
        0.9828256460452777
      ],
      "min": [
        0.0,
        0.0
      ],
      "type": "VEC2"
    },
    {
      "bufferView": 8,
      "componentType": 5125,
      "count": 2616,
      "type": "SCALAR"
    },
    {
      "bufferView": 9,
      "componentType": 5126,
      "count": 736,
      "max": [
        0.003622040543794003,
        0.007853288965696939,
        0.00399999989895149
      ],
      "min": [
        0.0021519267868871372,
        0.005631905360853659,
        -0.003999999898951502
      ],
      "type": "VEC3"
    },
    {
      "bufferView": 10,
      "componentType": 5126,
      "count": 736,
      "max": [
        0.999996832538875,
        0.9999968483867041,
        1.0
      ],
      "min": [
        -0.999999876653644,
        -0.999999960425668,
        -1.0
      ],
      "type": "VEC3"
    },
    {
      "bufferView": 11,
      "componentType": 5126,
      "count": 736,
      "max": [
        0.9374586436566336,
        1.0
      ],
      "min": [
        0.0,
        0.0
      ],
      "type": "VEC2"
    },
    {
      "bufferView": 12,
      "componentType": 5125,
      "count": 2616,
      "type": "SCALAR"
    },
    {
      "bufferView": 13,
      "componentType": 5126,
      "count": 736,
      "max": [
        -0.0021076983103468505,
        0.00783379357953834,
        0.003999999898951499
      ],
      "min": [
        -0.003664868136239452,
        0.005650623068765667,
        -0.003999999898951502
      ],
      "type": "VEC3"
    },
    {
      "bufferView": 14,
      "componentType": 5126,
      "count": 736,
      "max": [
        0.9999882455565633,
        0.9999863873654453,
        1.0
      ],
      "min": [
        -0.9999863458066762,
        -0.9999881564654718,
        -1.0
      ],
      "type": "VEC3"
    },
    {
      "bufferView": 15,
      "componentType": 5126,
      "count": 736,
      "max": [
        0.9483915945772475,
        1.0
      ],
      "min": [
        0.0,
        0.0
      ],
      "type": "VEC2"
    },
    {
      "bufferView": 16,
      "componentType": 5125,
      "count": 3048,
      "type": "SCALAR"
    },
    {
      "bufferView": 17,
      "componentType": 5126,
      "count": 856,
      "max": [
        -0.002028207240027169,
        -0.0057049673003910645,
        0.003999999898951502
      ],
      "min": [
        -0.0037589604677945587,
        -0.007788057781247554,
        -0.003999999898951502
      ],
      "type": "VEC3"
    },
    {
      "bufferView": 18,
      "componentType": 5126,
      "count": 856,
      "max": [
        0.9999985686874211,
        0.9999985685850241,
        1.0
      ],
      "min": [
        -0.9999987983690857,
        -0.999998839320173,
        -1.0
      ],
      "type": "VEC3"
    },
    {
      "bufferView": 19,
      "componentType": 5126,
      "count": 856,
      "max": [
        0.9700772920737877,
        1.0
      ],
      "min": [
        0.0,
        0.0
      ],
      "type": "VEC2"
    },
    {
      "bufferView": 20,
      "componentType": 5125,
      "count": 3192,
      "type": "SCALAR"
    },
    {
      "bufferView": 21,
      "componentType": 5126,
      "count": 896,
      "max": [
        0.003697851959270304,
        -0.005667031797016803,
        0.003999999898951502
      ],
      "min": [
        0.0020906339455069034,
        -0.007824928915175,
        -0.003999999898951502
      ],
      "type": "VEC3"
    },
    {
      "bufferView": 22,
      "componentType": 5126,
      "count": 896,
      "max": [
        0.9999996743552678,
        0.9999996969097897,
        1.0
      ],
      "min": [
        -0.9999996962056005,
        -0.9999997025913224,
        -1.0
      ],
      "type": "VEC3"
    },
    {
      "bufferView": 23,
      "componentType": 5126,
      "count": 896,
      "max": [
        0.9547136054924896,
        1.0
      ],
      "min": [
        0.0,
        0.0
      ],
      "type": "VEC2"
    },
    {
      "bufferView": 24,
      "componentType": 5125,
      "count": 312,
      "type": "SCALAR"
    },
    {
      "bufferView": 25,
      "componentType": 5126,
      "count": 126,
      "max": [
        0.002910347416738901,
        0.0028146978638009523,
        0.003999999898951499
      ],
      "min": [
        -0.0027163534314685878,
        -0.003122911497181316,
        -0.003999999898951502
      ],
      "type": "VEC3"
    },
    {
      "bufferView": 26,
      "componentType": 5126,
      "count": 126,
      "max": [
        0.9972610343696953,
        0.9999999999954029,
        1.0
      ],
      "min": [
        -0.9965956937754294,
        -0.9999999999954029,
        -1.0
      ],
      "type": "VEC3"
    },
    {
      "bufferView": 27,
      "componentType": 5126,
      "count": 126,
      "max": [
        1.0,
        0.9037590048230648
      ],
      "min": [
        0.0,
        0.0
      ],
      "type": "VEC2"
    },
    {
      "bufferView": 28,
      "componentType": 5125,
      "count": 17994,
      "type": "SCALAR"
    },
    {
      "bufferView": 29,
      "componentType": 5126,
      "count": 5031,
      "max": [
        0.010597650180493967,
        0.010597662389488713,
        0.003999999898951499
      ],
      "min": [
        -0.010597650180493856,
        -0.01059766238948874,
        -0.003999999898951502
      ],
      "type": "VEC3"
    },
    {
      "bufferView": 30,
      "componentType": 5126,
      "count": 5031,
      "max": [
        0.9999999999998778,
        0.9999999999999564,
        1.0
      ],
      "min": [
        -0.9999999999998933,
        -0.9999999999999535,
        -1.0
      ],
      "type": "VEC3"
    },
    {
      "bufferView": 31,
      "componentType": 5126,
      "count": 5031,
      "max": [
        1.0,
        0.9954382229259741
      ],
      "min": [
        0.0,
        0.0
      ],
      "type": "VEC2"
    }
  ],
  "asset": {
    "generator": "Adobe Illustrator",
    "version": "2.0"
  },
  "bufferViews": [
    {
      "buffer": 0,
      "byteLength": 9312,
      "target": 34963
    },
    {
      "buffer": 0,
      "byteLength": 7872,
      "byteOffset": 9312,
      "target": 34962
    },
    {
      "buffer": 0,
      "byteLength": 7872,
      "byteOffset": 17184,
      "target": 34962
    },
    {
      "buffer": 0,
      "byteLength": 5248,
      "byteOffset": 25056,
      "target": 34962
    },
    {
      "buffer": 0,
      "byteLength": 9312,
      "byteOffset": 30304,
      "target": 34963
    },
    {
      "buffer": 0,
      "byteLength": 7872,
      "byteOffset": 39616,
      "target": 34962
    },
    {
      "buffer": 0,
      "byteLength": 7872,
      "byteOffset": 47488,
      "target": 34962
    },
    {
      "buffer": 0,
      "byteLength": 5248,
      "byteOffset": 55360,
      "target": 34962
    },
    {
      "buffer": 0,
      "byteLength": 10464,
      "byteOffset": 60608,
      "target": 34963
    },
    {
      "buffer": 0,
      "byteLength": 8832,
      "byteOffset": 71072,
      "target": 34962
    },
    {
      "buffer": 0,
      "byteLength": 8832,
      "byteOffset": 79904,
      "target": 34962
    },
    {
      "buffer": 0,
      "byteLength": 5888,
      "byteOffset": 88736,
      "target": 34962
    },
    {
      "buffer": 0,
      "byteLength": 10464,
      "byteOffset": 94624,
      "target": 34963
    },
    {
      "buffer": 0,
      "byteLength": 8832,
      "byteOffset": 105088,
      "target": 34962
    },
    {
      "buffer": 0,
      "byteLength": 8832,
      "byteOffset": 113920,
      "target": 34962
    },
    {
      "buffer": 0,
      "byteLength": 5888,
      "byteOffset": 122752,
      "target": 34962
    },
    {
      "buffer": 0,
      "byteLength": 12192,
      "byteOffset": 128640,
      "target": 34963
    },
    {
      "buffer": 0,
      "byteLength": 10272,
      "byteOffset": 140832,
      "target": 34962
    },
    {
      "buffer": 0,
      "byteLength": 10272,
      "byteOffset": 151104,
      "target": 34962
    },
    {
      "buffer": 0,
      "byteLength": 6848,
      "byteOffset": 161376,
      "target": 34962
    },
    {
      "buffer": 0,
      "byteLength": 12768,
      "byteOffset": 168224,
      "target": 34963
    },
    {
      "buffer": 0,
      "byteLength": 10752,
      "byteOffset": 180992,
      "target": 34962
    },
    {
      "buffer": 0,
      "byteLength": 10752,
      "byteOffset": 191744,
      "target": 34962
    },
    {
      "buffer": 0,
      "byteLength": 7168,
      "byteOffset": 202496,
      "target": 34962
    },
    {
      "buffer": 0,
      "byteLength": 1248,
      "byteOffset": 209664,
      "target": 34963
    },
    {
      "buffer": 0,
      "byteLength": 1512,
      "byteOffset": 210912,
      "target": 34962
    },
    {
      "buffer": 0,
      "byteLength": 1512,
      "byteOffset": 212424,
      "target": 34962
    },
    {
      "buffer": 0,
      "byteLength": 1008,
      "byteOffset": 213936,
      "target": 34962
    },
    {
      "buffer": 0,
      "byteLength": 71976,
      "byteOffset": 214944,
      "target": 34963
    },
    {
      "buffer": 0,
      "byteLength": 60372,
      "byteOffset": 286920,
      "target": 34962
    },
    {
      "buffer": 0,
      "byteLength": 60372,
      "byteOffset": 347292,
      "target": 34962
    },
    {
      "buffer": 0,
      "byteLength": 40248,
      "byteOffset": 407664,
      "target": 34962
    }
  ],
  "buffers": [
    {
      "byteLength": 447912,
      "uri": "data:application/octet-stream;base64,"
    }
  ],
  "images": [
    {
      "name": "BaseColor",
      "uri": "data:image/png;base64,"
    },
    {
      "name": "BaseColor",
      "uri": "data:image/png;base64,"
    },
    {
      "name": "BaseColor",
      "uri": "data:image/png;base64,"
    },
    {
      "name": "BaseColor",
      "uri": "data:image/png;base64,"
    },
    {
      "name": "BaseColor",
      "uri": "data:image/png;base64,"
    },
    {
      "name": "BaseColor",
      "uri": "data:image/png;base64,"
    },
    {
      "name": "BaseColor",
      "uri": "data:image/png;base64,"
    },
    {
      "name": "BaseColor",
      "uri": "data:image/png;base64,"
    }
  ],
  "materials": [
    {
      "doubleSided": true,
      "pbrMetallicRoughness": {
        "baseColorTexture": {
          "index": 0
        },
        "metallicFactor": 0.0,
        "roughnessFactor": 0.4000000059604645
      }
    },
    {
      "doubleSided": true,
      "pbrMetallicRoughness": {
        "baseColorTexture": {
          "index": 1
        },
        "metallicFactor": 0.0,
        "roughnessFactor": 0.4000000059604645
      }
    },
    {
      "doubleSided": true,
      "pbrMetallicRoughness": {
        "baseColorTexture": {
          "index": 2
        },
        "metallicFactor": 0.0,
        "roughnessFactor": 0.4000000059604645
      }
    },
    {
      "doubleSided": true,
      "pbrMetallicRoughness": {
        "baseColorTexture": {
          "index": 3
        },
        "metallicFactor": 0.0,
        "roughnessFactor": 0.4000000059604645
      }
    },
    {
      "doubleSided": true,
      "pbrMetallicRoughness": {
        "baseColorTexture": {
          "index": 4
        },
        "metallicFactor": 0.0,
        "roughnessFactor": 0.4000000059604645
      }
    },
    {
      "doubleSided": true,
      "pbrMetallicRoughness": {
        "baseColorTexture": {
          "index": 5
        },
        "metallicFactor": 0.0,
        "roughnessFactor": 0.4000000059604645
      }
    },
    {
      "doubleSided": true,
      "pbrMetallicRoughness": {
        "baseColorTexture": {
          "index": 6
        },
        "metallicFactor": 0.0,
        "roughnessFactor": 0.4000000059604645
      }
    },
    {
      "doubleSided": true,
      "pbrMetallicRoughness": {
        "baseColorTexture": {
          "index": 7
        },
        "metallicFactor": 0.0,
        "roughnessFactor": 0.4000000059604645
      }
    }
  ],
  "meshes": [
    {
      "primitives": [
        {
          "attributes": {
            "NORMAL": 2,
            "POSITION": 1,
            "TEXCOORD_0": 3
          },
          "indices": 0,
          "material": 0,
          "mode": 4
        }
      ]
    },
    {
      "primitives": [
        {
          "attributes": {
            "NORMAL": 6,
            "POSITION": 5,
            "TEXCOORD_0": 7
          },
          "indices": 4,
          "material": 1,
          "mode": 4
        }
      ]
    },
    {
      "primitives": [
        {
          "attributes": {
            "NORMAL": 10,
            "POSITION": 9,
            "TEXCOORD_0": 11
          },
          "indices": 8,
          "material": 2,
          "mode": 4
        }
      ]
    },
    {
      "primitives": [
        {
          "attributes": {
            "NORMAL": 14,
            "POSITION": 13,
            "TEXCOORD_0": 15
          },
          "indices": 12,
          "material": 3,
          "mode": 4
        }
      ]
    },
    {
      "primitives": [
        {
          "attributes": {
            "NORMAL": 18,
            "POSITION": 17,
            "TEXCOORD_0": 19
          },
          "indices": 16,
          "material": 4,
          "mode": 4
        }
      ]
    },
    {
      "primitives": [
        {
          "attributes": {
            "NORMAL": 22,
            "POSITION": 21,
            "TEXCOORD_0": 23
          },
          "indices": 20,
          "material": 5,
          "mode": 4
        }
      ]
    },
    {
      "primitives": [
        {
          "attributes": {
            "NORMAL": 26,
            "POSITION": 25,
            "TEXCOORD_0": 27
          },
          "indices": 24,
          "material": 6,
          "mode": 4
        }
      ]
    },
    {
      "primitives": [
        {
          "attributes": {
            "NORMAL": 30,
            "POSITION": 29,
            "TEXCOORD_0": 31
          },
          "indices": 28,
          "material": 7,
          "mode": 4
        }
      ]
    }
  ],
  "nodes": [
    {
      "mesh": 0
    },
    {
      "mesh": 1
    },
    {
      "mesh": 2
    },
    {
      "mesh": 3
    },
    {
      "mesh": 4
    },
    {
      "mesh": 5
    },
    {
      "mesh": 6
    },
    {
      "mesh": 7
    }
  ],
  "samplers": [
    {
      "magFilter": 9729,
      "minFilter": 9729,
      "wrapS": 10497,
      "wrapT": 10497
    },
    {
      "magFilter": 9729,
      "minFilter": 9729,
      "wrapS": 10497,
      "wrapT": 10497
    },
    {
      "magFilter": 9729,
      "minFilter": 9729,
      "wrapS": 10497,
      "wrapT": 10497
    },
    {
      "magFilter": 9729,
      "minFilter": 9729,
      "wrapS": 10497,
      "wrapT": 10497
    },
    {
      "magFilter": 9729,
      "minFilter": 9729,
      "wrapS": 10497,
      "wrapT": 10497
    },
    {
      "magFilter": 9729,
      "minFilter": 9729,
      "wrapS": 10497,
      "wrapT": 10497
    },
    {
      "magFilter": 9729,
      "minFilter": 9729,
      "wrapS": 10497,
      "wrapT": 10497
    },
    {
      "magFilter": 9729,
      "minFilter": 9729,
      "wrapS": 10497,
      "wrapT": 10497
    }
  ],
  "scenes": [
    {
      "nodes": [
        0,
        1,
        2,
        3,
        4,
        5,
        6,
        7
      ]
    }
  ],
  "textures": [
    {
      "sampler": 0,
      "source": 0
    },
    {
      "sampler": 1,
      "source": 1
    },
    {
      "sampler": 2,
      "source": 2
    },
    {
      "sampler": 3,
      "source": 3
    },
    {
      "sampler": 4,
      "source": 4
    },
    {
      "sampler": 5,
      "source": 5
    },
    {
      "sampler": 6,
      "source": 6
    },
    {
      "sampler": 7,
      "source": 7
    }
  ]
}
